<?xml version="1.0" encoding="UTF-8" standalone="no"?>
<!-- Uploaded to: SVG Repo, www.svgrepo.com, Generator: SVG Repo Mixer Tools -->

<svg
   fill="#000000"
   height="800px"
   width="800px"
   version="1.1"
   id="Capa_1"
   viewBox="0 0 471.701 471.701"
   xml:space="preserve"
   sodipodi:docname="corazonrelleno.svg"
   inkscape:version="1.2.1 (9c6d41e410, 2022-07-14)"
   xmlns:inkscape="http://www.inkscape.org/namespaces/inkscape"
   xmlns:sodipodi="http://sodipodi.sourceforge.net/DTD/sodipodi-0.dtd"
   xmlns="http://www.w3.org/2000/svg"
   xmlns:svg="http://www.w3.org/2000/svg"><defs
   id="defs18"><linearGradient
     id="linearGradient904"
     inkscape:swatch="solid"><stop
       style="stop-color:#ffffff;stop-opacity:1;"
       offset="0"
       id="stop902" /></linearGradient></defs><sodipodi:namedview
   id="namedview16"
   pagecolor="#ffffff"
   bordercolor="#000000"
   borderopacity="0.25"
   inkscape:showpageshadow="2"
   inkscape:pageopacity="0.0"
   inkscape:pagecheckerboard="0"
   inkscape:deskcolor="#d1d1d1"
   showgrid="false"
   inkscape:zoom="1.04625"
   inkscape:cx="399.5221"
   inkscape:cy="324.01434"
   inkscape:window-width="1920"
   inkscape:window-height="1017"
   inkscape:window-x="1016"
   inkscape:window-y="-8"
   inkscape:window-maximized="1"
   inkscape:current-layer="g13" />
<g
   id="g13"
   style="stroke-width:1.00000612;stroke-dasharray:none">
	<path
   d="m 433.601,67.001 c -24.7,-24.7 -57.4,-38.2 -92.3,-38.2 -34.9,0 -67.7,13.6 -92.4,38.3 l -12.9,12.9 -13.1,-13.1 c -24.7,-24.7 -57.6,-38.4 -92.5,-38.4 -34.8,0 -67.6,13.6 -92.2,38.2 -24.7,24.7 -38.3,57.5 -38.2,92.4 0,34.9 13.7,67.6 38.4,92.3 l 187.8,187.8 c 2.6,2.6 6.1,4 9.5,4 3.4,0 6.9,-1.3 9.5,-3.9 l 188.2,-187.5 c 24.7,-24.7 38.3,-57.5 38.3,-92.4 0.1,-34.9 -13.4,-67.7 -38.1,-92.4 z m -199.53969,105.39892 1.63969,81.06741 -16.55784,6.54818 c -25.7761,10.19376 22.01122,45.13341 22.01122,17.43341 0,-27.7 -19.73232,20.69012 -0.13232,1.19012 19.5,-19.5 -30.58081,-4.37617 -2.98081,-4.37617 27.7,0 37.7874,34.20192 31.13289,7.29398 L 226.401,108.601 c -1.79943,-7.27613 13.8,5.3 19.1,0 l 22.4,-22.4 c 19.6,-19.6 -72.08436,9.049307 -44.48436,9.049307 27.6,0 -53.47669,10.800003 -33.87669,30.300003 19.6,19.6 12.82959,-11.31972 12.82959,16.38028 0.1,27.7 51.29177,10.86933 31.69177,30.46933 z"
   id="path11"
   style="fill:#d34a53;fill-opacity:1;stroke:none;stroke-width:1.00001;stroke-dasharray:none"
   sodipodi:nodetypes="ssscssscssscccsccsscssssssccc" />
</g>
</svg>
